<?plantuml 1.2026.1?><svg xmlns="http://www.w3.org/2000/svg" xmlns:xlink="http://www.w3.org/1999/xlink" contentStyleType="text/css" data-diagram-type="DESCRIPTION" height="338px" preserveAspectRatio="none" style="width:536px;height:338px;background:#FFFFFF;" version="1.1" viewBox="0 0 536 338" width="536px" zoomAndPan="magnify"><defs/><g><!--entity f4--><g class="entity" data-qualified-name="f4" data-source-line="9" id="ent0002"><rect fill="#F5F5F5" height="36.2969" rx="2.5" ry="2.5" style="stroke:#666666;stroke-width:0.5;" width="70.5723" x="316.43" y="7"/><text fill="#000000" font-family="monospace" font-size="14" lengthAdjust="spacing" textLength="50.5723" x="326.43" y="29.9951">fib(4)</text></g><!--entity f3--><g class="entity" data-qualified-name="f3" data-source-line="10" id="ent0003"><rect fill="#F5F5F5" height="36.2969" rx="2.5" ry="2.5" style="stroke:#666666;stroke-width:0.5;" width="70.5723" x="194.43" y="103.3"/><text fill="#000000" font-family="monospace" font-size="14" lengthAdjust="spacing" textLength="50.5723" x="204.43" y="126.2951">fib(3)</text></g><!--entity f2a--><g class="entity" data-qualified-name="f2a" data-source-line="11" id="ent0004"><rect fill="#F5F5F5" height="36.2969" rx="2.5" ry="2.5" style="stroke:#666666;stroke-width:0.5;" width="87.4297" x="308" y="103.3"/><text fill="#000000" font-family="monospace" font-size="14" lengthAdjust="spacing" textLength="50.5723" x="318" y="126.2951">fib(2)</text></g><!--entity f2b--><g class="entity" data-qualified-name="f2b" data-source-line="12" id="ent0005"><rect fill="#F5F5F5" height="36.2969" rx="2.5" ry="2.5" style="stroke:#666666;stroke-width:0.5;" width="79.001" x="72.21" y="199.6"/><text fill="#000000" font-family="monospace" font-size="14" lengthAdjust="spacing" textLength="50.5723" x="90.6387" y="222.5951">fib(2)</text></g><!--entity f1a--><g class="entity" data-qualified-name="f1a" data-source-line="13" id="ent0006"><rect fill="#90EE90" height="36.2969" rx="2.5" ry="2.5" style="stroke:#666666;stroke-width:0.5;" width="87.4297" x="186" y="199.6"/><text fill="#000000" font-family="monospace" font-size="14" lengthAdjust="spacing" textLength="67.4297" x="196" y="222.5951">fib(1)=1</text></g><!--entity f0a--><g class="entity" data-qualified-name="f0a" data-source-line="14" id="ent0007"><rect fill="#90EE90" height="36.2969" rx="2.5" ry="2.5" style="stroke:#666666;stroke-width:0.5;" width="87.4297" x="308" y="199.6"/><text fill="#000000" font-family="monospace" font-size="14" lengthAdjust="spacing" textLength="67.4297" x="318" y="222.5951">fib(0)=0</text></g><!--entity f1b--><g class="entity" data-qualified-name="f1b" data-source-line="15" id="ent0008"><rect fill="#90EE90" height="36.2969" rx="2.5" ry="2.5" style="stroke:#666666;stroke-width:0.5;" width="87.4297" x="430" y="199.6"/><text fill="#000000" font-family="monospace" font-size="14" lengthAdjust="spacing" textLength="67.4297" x="440" y="222.5951">fib(1)=1</text></g><!--entity f1c--><g class="entity" data-qualified-name="f1c" data-source-line="16" id="ent0009"><rect fill="#90EE90" height="36.2969" rx="2.5" ry="2.5" style="stroke:#666666;stroke-width:0.5;" width="87.4297" x="7" y="295.89"/><text fill="#000000" font-family="monospace" font-size="14" lengthAdjust="spacing" textLength="67.4297" x="17" y="318.8851">fib(1)=1</text></g><!--entity f0b--><g class="entity" data-qualified-name="f0b" data-source-line="17" id="ent0010"><rect fill="#90EE90" height="36.2969" rx="2.5" ry="2.5" style="stroke:#666666;stroke-width:0.5;" width="87.4297" x="129" y="295.89"/><text fill="#000000" font-family="monospace" font-size="14" lengthAdjust="spacing" textLength="67.4297" x="139" y="318.8851">fib(0)=0</text></g><g class="entity" data-qualified-name="GMN19" data-source-line="28" id="ent0020"><path d="M430.08,108.88 L430.08,134.0128 A0,0 0 0 0 430.08,134.0128 L529.3466,134.0128 A0,0 0 0 0 529.3466,134.0128 L529.3466,118.88 L519.3466,108.88 L467.38,108.88 L375.49,43.67 L459.38,108.88 L430.08,108.88 A0,0 0 0 0 430.08,108.88" fill="#E8F5E9" style="stroke:#666666;stroke-width:0.5;"/><path d="M519.3466,108.88 L519.3466,118.88 L529.3466,118.88 L519.3466,108.88" fill="#E8F5E9" style="stroke:#666666;stroke-width:0.5;"/><text fill="#000000" font-family="monospace" font-size="13" lengthAdjust="spacing" textLength="78.2666" x="436.08" y="125.9469">result&#160;=&#160;3</text></g><!--link f4 to f3--><g class="link" data-entity-1="ent0002" data-entity-2="ent0003" data-link-type="dependency" data-source-line="19" id="lnk11"><path d="M329.05,43.67 C307.14,60.6 278.8774,82.4509 256.9974,99.3609" fill="none" id="f4-to-f3" style="stroke:#666666;stroke-width:1;"/><polygon fill="#666666" points="252.25,103.03,261.8172,100.6914,256.2062,99.9725,256.9251,94.3615,252.25,103.03" style="stroke:#666666;stroke-width:1;"/></g><!--link f4 to f2a--><g class="link" data-entity-1="ent0002" data-entity-2="ent0004" data-link-type="dependency" data-source-line="20" id="lnk12"><path d="M351.71,43.45 C351.71,60.35 351.71,79.96 351.71,96.94" fill="none" id="f4-to-f2a" style="stroke:#666666;stroke-width:1;"/><polygon fill="#666666" points="351.71,102.94,355.71,93.94,351.71,97.94,347.71,93.94,351.71,102.94" style="stroke:#666666;stroke-width:1;"/></g><!--link f3 to f2b--><g class="link" data-entity-1="ent0003" data-entity-2="ent0005" data-link-type="dependency" data-source-line="21" id="lnk13"><path d="M207.8,139.96 C186.6,156.9 159.3574,178.6745 138.2074,195.5745" fill="none" id="f3-to-f2b" style="stroke:#666666;stroke-width:1;"/><polygon fill="#666666" points="133.52,199.32,143.048,196.8267,137.4261,196.1988,138.0541,190.5769,133.52,199.32" style="stroke:#666666;stroke-width:1;"/></g><!--link f3 to f1a--><g class="link" data-entity-1="ent0003" data-entity-2="ent0006" data-link-type="dependency" data-source-line="22" id="lnk14"><path d="M229.71,139.74 C229.71,156.65 229.71,176.26 229.71,193.24" fill="none" id="f3-to-f1a" style="stroke:#666666;stroke-width:1;"/><polygon fill="#666666" points="229.71,199.24,233.71,190.24,229.71,194.24,225.71,190.24,229.71,199.24" style="stroke:#666666;stroke-width:1;"/></g><!--link f2a to f1b--><g class="link" data-entity-1="ent0004" data-entity-2="ent0008" data-link-type="dependency" data-source-line="23" id="lnk15"><path d="M374.38,139.96 C396.29,156.9 424.5523,178.7513 446.4223,195.6513" fill="none" id="f2a-to-f1b" style="stroke:#666666;stroke-width:1;"/><polygon fill="#666666" points="451.17,199.32,446.4943,190.6518,447.2136,196.2627,441.6027,196.982,451.17,199.32" style="stroke:#666666;stroke-width:1;"/></g><!--link f2a to f0a--><g class="link" data-entity-1="ent0004" data-entity-2="ent0007" data-link-type="dependency" data-source-line="24" id="lnk16"><path d="M351.71,139.74 C351.71,156.65 351.71,176.26 351.71,193.24" fill="none" id="f2a-to-f0a" style="stroke:#666666;stroke-width:1;"/><polygon fill="#666666" points="351.71,199.24,355.71,190.24,351.71,194.24,347.71,190.24,351.71,199.24" style="stroke:#666666;stroke-width:1;"/></g><!--link f2b to f1c--><g class="link" data-entity-1="ent0005" data-entity-2="ent0009" data-link-type="dependency" data-source-line="25" id="lnk17"><path d="M100.53,236.04 C89.59,252.95 76.278,273.5216 65.298,290.5016" fill="none" id="f2b-to-f1c" style="stroke:#666666;stroke-width:1;"/><polygon fill="#666666" points="62.04,295.54,70.286,290.1545,64.755,291.3414,63.5681,285.8104,62.04,295.54" style="stroke:#666666;stroke-width:1;"/></g><!--link f2b to f0b--><g class="link" data-entity-1="ent0005" data-entity-2="ent0010" data-link-type="dependency" data-source-line="26" id="lnk18"><path d="M122.9,236.04 C133.84,252.95 147.152,273.5216 158.132,290.5016" fill="none" id="f2b-to-f0b" style="stroke:#666666;stroke-width:1;"/><polygon fill="#666666" points="161.39,295.54,159.8619,285.8104,158.675,291.3414,153.144,290.1545,161.39,295.54" style="stroke:#666666;stroke-width:1;"/></g><?plantuml-src ZPBBQiCm44Nt_eeXtjIBW5ynJS65f8sxALdq3qQov9ZOcY0hvFShOoLnLMY3DfSvHngzXcEhJgYn1uRys6Wwg_gDEj9mERH61CEDlmk9vyvKfCmUUm4zAHfEo4KzapPQqsMQ7nP5CIDVWXjKJIUsf6kX_t6ylOJLQXmpTK_cjxLxhbQxjM_v_G9zRGCBsRAdF5e03Y1p7sGEP3v88u09fJXdC467c3yjYSfaOWb2-Das1_EXXL2-5qTbF7dndzviFVQWnn_i-tEzGEQmNBwEDt5Dzk0oSv7TOcAhARhCxZaUwypL-Jt7B0YKVIDWP0prGD8-0xo05eFzQb12zWq0?></g></svg>